<svg height="512" viewBox="0 0 64 64" width="512" xmlns="http://www.w3.org/2000/svg"><g id="Filled_outline" data-name="Filled outline"><path d="m20 55h24v6h-24z" fill="#d69122"/><path d="m29 55h2v3h-2z" fill="#aa701b"/><path d="m33 55h2v3h-2z" fill="#aa701b"/><path d="m37 55h2v3h-2z" fill="#aa701b"/><path d="m20 49h24v6h-24z" fill="#eaa33d"/><path d="m29 49h2v3h-2z" fill="#aa701b"/><path d="m33 49h2v3h-2z" fill="#aa701b"/><path d="m37 49h2v3h-2z" fill="#aa701b"/><path d="m21 43h24v6h-24z" fill="#d69122"/><path d="m28 43h2v3h-2z" fill="#aa701b"/><path d="m32 43h2v3h-2z" fill="#aa701b"/><path d="m36 43h2v3h-2z" fill="#aa701b"/><path d="m40 43h2v3h-2z" fill="#aa701b"/><path d="m24 43h2v3h-2z" fill="#aa701b"/><path d="m21 37h24v6h-24z" fill="#ffd782"/><path d="m28 37h2v3h-2z" fill="#aa701b"/><path d="m32 37h2v3h-2z" fill="#aa701b"/><path d="m36 37h2v3h-2z" fill="#aa701b"/><path d="m40 37h2v3h-2z" fill="#aa701b"/><path d="m24 37h2v3h-2z" fill="#aa701b"/><path d="m25 49h2v3h-2z" fill="#aa701b"/><path d="m25 55h2v3h-2z" fill="#aa701b"/><path d="m25 3h14v14h-14z" fill="#ffd782"/><path d="m25 17h14v20h-14z" fill="#195c85"/><path d="m28 6h2v2h-2z" fill="#394d5c"/><path d="m34 6h2v2h-2z" fill="#394d5c"/><path d="m32 14a1 1 0 0 1 -.555-.168l-3-2a1 1 0 0 1 1.11-1.664l2.445 1.632 2.445-1.63a1 1 0 1 1 1.11 1.664l-3 2a1 1 0 0 1 -.555.166z" fill="#394d5c"/><path d="m25 17-9-5-2 4 11 8z" fill="#1f729b"/><path d="m16 12-2.936-1.761a2.23 2.23 0 0 0 -3.141.914 2.23 2.23 0 0 0 .847 2.909l3.23 1.938z" fill="#ffd782"/><path d="m48 12 2.935-1.761a2.23 2.23 0 0 1 3.142.915 2.231 2.231 0 0 1 -.847 2.909l-3.23 1.937z" fill="#ffd782"/><path d="m39 17 9-5 2 4-11 8z" fill="#1f729b"/><path d="m29 17 3 4 3-4z" fill="#e1462b"/><path d="m32 21-2 6 2 6 2-6z" fill="#e1462b"/><g fill="#fcf05a"><path d="m56 26a6.006 6.006 0 0 1 -6-6 1 1 0 0 1 2 0 4 4 0 0 0 4 4 1 1 0 0 1 0 2z"/><path d="m56 26a6.006 6.006 0 0 1 -6-6 1 1 0 0 1 2 0 4 4 0 0 0 4 4 1 1 0 0 1 0 2z"/><path d="m46 26a1 1 0 0 1 0-2 4 4 0 0 0 4-4 1 1 0 0 1 2 0 6.006 6.006 0 0 1 -6 6z"/><path d="m51 31a1 1 0 0 1 -1-1 6.006 6.006 0 0 1 6-6 1 1 0 0 1 0 2 4 4 0 0 0 -4 4 1 1 0 0 1 -1 1z"/><path d="m51 31a1 1 0 0 1 -1-1 6.006 6.006 0 0 1 6-6 1 1 0 0 1 0 2 4 4 0 0 0 -4 4 1 1 0 0 1 -1 1z"/><path d="m51 31a1 1 0 0 1 -1-1 4 4 0 0 0 -4-4 1 1 0 0 1 0-2 6.006 6.006 0 0 1 6 6 1 1 0 0 1 -1 1z"/><path d="m15 31a6.006 6.006 0 0 1 -6-6 1 1 0 0 1 2 0 4 4 0 0 0 4 4 1 1 0 0 1 0 2z"/><path d="m15 31a6.006 6.006 0 0 1 -6-6 1 1 0 0 1 2 0 4 4 0 0 0 4 4 1 1 0 0 1 0 2z"/><path d="m5 31a1 1 0 0 1 0-2 4 4 0 0 0 4-4 1 1 0 0 1 2 0 6.006 6.006 0 0 1 -6 6z"/><path d="m10 36a1 1 0 0 1 -1-1 6.006 6.006 0 0 1 6-6 1 1 0 0 1 0 2 4 4 0 0 0 -4 4 1 1 0 0 1 -1 1z"/><path d="m10 36a1 1 0 0 1 -1-1 6.006 6.006 0 0 1 6-6 1 1 0 0 1 0 2 4 4 0 0 0 -4 4 1 1 0 0 1 -1 1z"/><path d="m10 36a1 1 0 0 1 -1-1 4 4 0 0 0 -4-4 1 1 0 0 1 0-2 6.006 6.006 0 0 1 6 6 1 1 0 0 1 -1 1z"/></g><path d="m44 55h16v6h-16z" fill="#f9bb4b" transform="matrix(-1 0 0 -1 104 116)"/><path d="m55 55h2v3h-2z" fill="#aa701b"/><path d="m51 55h2v3h-2z" fill="#aa701b"/><path d="m47 55h2v3h-2z" fill="#aa701b"/><path d="m44 49h16v6h-16z" fill="#ffd782" transform="matrix(-1 0 0 -1 104 104)"/><path d="m55 49h2v3h-2z" fill="#aa701b"/><path d="m51 49h2v3h-2z" fill="#aa701b"/><path d="m47 49h2v3h-2z" fill="#aa701b"/><path d="m45 43h16v6h-16z" fill="#f9bb4b" transform="matrix(-1 0 0 -1 106 92)"/><path d="m56 43h2v3h-2z" fill="#aa701b"/><path d="m52 43h2v3h-2z" fill="#aa701b"/><path d="m48 43h2v3h-2z" fill="#aa701b"/><path d="m5 43h16v6h-16z" fill="#f9bb4b" transform="matrix(-1 0 0 -1 26 92)"/><path d="m16 43h2v3h-2z" fill="#aa701b"/><path d="m12 43h2v3h-2z" fill="#aa701b"/><path d="m8 43h2v3h-2z" fill="#aa701b"/><path d="m4 55h16v6h-16z" fill="#f9bb4b" transform="matrix(-1 0 0 -1 24 116)"/><path d="m15 55h2v3h-2z" fill="#aa701b"/><path d="m11 55h2v3h-2z" fill="#aa701b"/><path d="m7 55h2v3h-2z" fill="#aa701b"/><path d="m4 49h16v6h-16z" fill="#ffd782" transform="matrix(-1 0 0 -1 24 104)"/><path d="m15 49h2v3h-2z" fill="#aa701b"/><path d="m11 49h2v3h-2z" fill="#aa701b"/><path d="m7 49h2v3h-2z" fill="#aa701b"/><path d="m17 25h2v2h-2z" fill="#87cee9"/><path d="m43 30h2v2h-2z" fill="#87cee9"/><path d="m28 6h2v2h-2z"/><path d="m34 6h2v2h-2z"/><path d="m32 14a1 1 0 0 0 .555-.168l3-2a1 1 0 1 0 -1.11-1.664l-2.445 1.632-2.445-1.63a1 1 0 0 0 -1.11 1.664l3 2a1 1 0 0 0 .555.166z"/><path d="m52 20a1 1 0 0 0 -2 0 4 4 0 0 1 -4 4 1 1 0 0 0 0 2 4 4 0 0 1 4 4 1 1 0 0 0 2 0 4 4 0 0 1 4-4 1 1 0 0 0 0-2 4 4 0 0 1 -4-4zm-1 6.69a6.044 6.044 0 0 0 -1.69-1.69 6.044 6.044 0 0 0 1.69-1.69 6.044 6.044 0 0 0 1.69 1.69 6.044 6.044 0 0 0 -1.69 1.69z"/><path d="m5 31a4 4 0 0 1 4 4 1 1 0 0 0 2 0 4 4 0 0 1 4-4 1 1 0 0 0 0-2 4 4 0 0 1 -4-4 1 1 0 0 0 -2 0 4 4 0 0 1 -4 4 1 1 0 0 0 0 2zm5-2.69a6.044 6.044 0 0 0 1.69 1.69 6.044 6.044 0 0 0 -1.69 1.69 6.044 6.044 0 0 0 -1.69-1.69 6.044 6.044 0 0 0 1.69-1.69z"/><path d="m61 42h-15v-5a1 1 0 0 0 -1-1h-5v-11.491l10.541-7.666 3.2-1.923a3.229 3.229 0 1 0 -3.323-5.538l-2.907 1.744-7.511 4.174v-13.3h-16v13.3l-7.493-4.163-2.928-1.756a3.229 3.229 0 1 0 -3.323 5.538l3.194 1.917 10.55 7.673v11.491h-3a1 1 0 0 0 -1 1v5h-15a1 1 0 0 0 -1 1v5a1 1 0 0 0 -1 1v12a1 1 0 0 0 1 1h56a1 1 0 0 0 1-1v-11a1 1 0 0 0 1-1v-6a1 1 0 0 0 -1-1zm-1 6h-14v-4h2v2h2v-2h2v2h2v-2h2v2h2v-2h2zm-17 6h-22v-4h4v2h2v-2h2v2h2v-2h2v2h2v-2h2v2h2v-2h4zm-38 0v-4h2v2h2v-2h2v2h2v-2h2v2h2v-2h2v4zm17-10h2v2h2v-2h2v2h2v-2h2v2h2v-2h2v2h2v-2h2v2h2v-2h2v4h-22zm18-21.964v-4.448l7.572-4.207 1.155 2.308zm11.451-10.936a1.229 1.229 0 0 1 1.265 2.108l-2.3 1.382-1.1-2.206zm-25.451-7.1h12v12h-12zm6 20.162.946 2.838-.946 2.838-.946-2.838zm0-4.829-1-1.333h2zm-21.183-7.733a1.221 1.221 0 0 1 .757-.631 1.25 1.25 0 0 1 .347-.05 1.216 1.216 0 0 1 .629.176l2.141 1.285-1.1 2.206-2.3-1.382a1.236 1.236 0 0 1 -.474-1.604zm4.456 4.088 1.155-2.308 7.572 4.208v4.448zm10.727 2.312h2.5l2.386 3.181-1.834 5.5a.977.977 0 0 0 0 .632l2 6a1 1 0 0 0 1.9 0l2-6a.977.977 0 0 0 0-.632l-1.834-5.5 2.382-3.181h2.5v18h-12zm-4 20h2v2h2v-2h2v2h2v-2h2v2h2v-2h2v2h2v-2h2v2h2v-2h2v4h-22zm-16 6h2v2h2v-2h2v2h2v-2h2v2h2v-2h2v4h-14zm-1 12h2v2h2v-2h2v2h2v-2h2v2h2v-2h2v4h-14zm16 0h4v2h2v-2h2v2h2v-2h2v2h2v-2h2v2h2v-2h4v4h-22zm38 4h-14v-4h2v2h2v-2h2v2h2v-2h2v2h2v-2h2zm0-6h-14v-4h2v2h2v-2h2v2h2v-2h2v2h2v-2h2z"/><path d="m17 25h2v2h-2z"/><path d="m43 30h2v2h-2z"/></g></svg>